<?xml version="1.0" standalone="no"?>
<!DOCTYPE svg PUBLIC "-//W3C//DTD SVG 20010904//EN"
 "http://www.w3.org/TR/2001/REC-SVG-20010904/DTD/svg10.dtd">
<svg version="1.0" xmlns="http://www.w3.org/2000/svg"
 width="432.000000pt" height="432.000000pt" viewBox="0 0 432.000000 432.000000"
 preserveAspectRatio="xMidYMid meet">
<metadata>
Created by potrace 1.11, written by Peter Selinger 2001-2013
</metadata>
<g transform="translate(0.000000,432.000000) scale(0.100000,-0.100000)"
fill="#000000" stroke="none">
<path d="M920 3675 c-74 -20 -151 -62 -246 -136 -49 -38 -132 -103 -185 -144
-124 -95 -173 -146 -209 -220 -51 -102 -70 -245 -46 -344 19 -80 88 -164 164
-199 20 -9 39 -20 42 -24 8 -10 6 -748 -2 -748 -4 -1 -31 -8 -59 -16 -55 -16
-45 -19 -124 32 -24 16 -25 15 -120 -78 -53 -53 -95 -103 -95 -114 0 -15 5
-13 27 13 16 17 50 48 78 69 27 22 58 47 69 56 18 16 21 16 48 1 39 -24 35
-34 -9 -27 -36 5 -41 2 -95 -51 -53 -53 -107 -139 -95 -151 3 -3 10 3 16 15 6
11 39 41 74 67 34 27 66 54 70 61 4 7 12 13 17 13 18 0 10 -21 -19 -52 -40
-43 -66 -149 -51 -208 5 -20 8 -14 14 29 4 30 14 68 23 85 39 77 82 93 51 19
-33 -82 -32 -197 4 -246 11 -15 13 -2 14 75 0 63 5 105 16 130 l17 37 46 -20
c67 -30 169 -28 240 5 l53 24 20 -48 c16 -38 20 -67 18 -137 -3 -83 -2 -86 11
-54 8 18 18 62 22 98 7 63 3 88 -34 178 -7 18 -5 17 18 -4 54 -49 73 -130 51
-213 -7 -26 -9 -48 -4 -48 13 0 46 118 44 157 -1 21 -2 47 -3 57 -1 11 -24 42
-52 68 -28 26 -49 48 -45 48 19 0 166 -125 166 -142 0 -4 4 -8 10 -8 15 0 -9
49 -49 100 -57 71 -93 99 -126 100 l-30 0 30 24 29 24 54 -42 c30 -22 74 -60
98 -84 31 -30 44 -37 44 -25 0 9 -43 59 -96 110 l-96 93 -46 -33 -47 -34 -40
18 c-22 10 -54 19 -70 22 l-29 4 -3 240 -3 240 69 66 c73 71 82 74 159 55 59
-14 104 -44 142 -94 35 -46 37 -72 10 -149 -25 -73 -25 -77 1 -73 17 2 26 19
45 79 22 70 26 77 66 96 95 47 201 52 275 15 34 -18 49 -36 92 -117 l51 -95
-34 -68 c-37 -75 -67 -142 -186 -417 -137 -318 -129 -302 -153 -303 -18 0
-157 -24 -282 -47 -24 -5 -75 -18 -115 -30 -3 -1 -18 -5 -35 -9 -263 -68 -441
-208 -450 -355 -8 -150 113 -256 455 -398 170 -71 401 -139 550 -163 36 -5 74
-12 85 -14 28 -5 92 -15 140 -20 22 -3 58 -8 80 -10 187 -24 324 -31 635 -31
268 0 521 9 580 20 10 2 54 7 97 10 43 4 85 9 94 10 9 2 40 6 70 10 269 32
718 133 887 199 196 77 341 187 409 310 21 40 27 64 27 111 -2 161 -137 267
-434 339 -155 37 -155 37 -330 61 -205 29 -168 -6 -287 275 -58 135 -131 327
-164 428 -71 215 -126 350 -181 447 -172 298 -301 450 -487 572 -104 69 -368
201 -701 351 -25 11 -85 38 -135 61 -98 44 -149 69 -297 150 -53 28 -112 57
-130 62 -51 16 -138 18 -188 4z m-20 -500 c0 -21 -38 -47 -81 -55 -30 -6 -55
-3 -92 10 l-51 18 44 12 c98 27 180 34 180 15z m79 -41 c29 -64 -3 -92 -78
-66 -41 14 -43 16 -22 24 25 9 60 47 61 65 0 20 26 4 39 -23z m-271 -41 c67
-24 93 -90 50 -130 -24 -21 -88 -57 -88 -49 0 3 -13 1 -30 -4 l-29 -8 19 36
c22 41 27 130 9 164 -10 19 -9 20 7 13 11 -4 38 -14 62 -22z m384 -18 c11 -20
11 -20 -11 -1 -11 11 -21 26 -21 35 0 14 2 14 10 1 6 -8 16 -24 22 -35z m-482
-11 c10 -55 -1 -93 -40 -136 -21 -24 -41 -40 -44 -37 -12 12 -17 94 -8 120 14
35 62 91 76 86 6 -2 13 -17 16 -33z m460 -45 c0 -4 -13 -3 -29 2 -22 8 -28 15
-24 30 5 20 6 20 29 -2 13 -12 24 -26 24 -30z m-201 20 c40 -14 59 -46 38 -66
-14 -15 -96 -37 -104 -29 -3 2 1 14 7 26 7 12 10 35 8 51 -5 32 2 35 51 18z
m136 -48 c17 -7 17 -8 -8 -15 -30 -7 -51 0 -42 15 7 11 22 11 50 0z m34 -72
c-18 -18 -21 -18 -35 -4 -16 16 -16 15 26 28 26 8 30 -3 9 -24z m-94 -11 c35
-16 32 -47 -8 -86 l-34 -33 0 31 c0 17 -9 44 -21 60 -20 26 -20 29 -4 33 30 8
40 7 67 -5z m138 -18 c-5 -19 -23 -29 -23 -12 0 7 20 32 26 32 1 0 0 -9 -3
-20z m72 -17 c3 -13 2 -23 -4 -23 -5 0 -16 -3 -24 -6 -12 -4 -13 0 -3 30 11
37 19 36 31 -1z m-315 -11 c25 -25 28 -33 20 -63 -13 -55 -22 -72 -59 -107
-19 -18 -35 -31 -36 -30 -2 2 -5 22 -9 45 -7 56 -27 93 -71 131 l-35 32 27 6
c16 3 32 7 38 8 5 1 29 3 53 5 35 2 47 -3 72 -27z m-187 -53 c46 -39 68 -89
62 -144 -2 -16 -3 -36 -4 -43 -1 -14 -79 -102 -91 -102 -4 0 -8 17 -8 38 0 20
-5 50 -11 65 -6 16 -9 45 -6 65 4 28 -2 52 -23 97 -26 52 -27 61 -13 66 23 9
44 -1 94 -42z m400 17 c3 -7 -4 -45 -15 -84 l-21 -70 -29 34 c-17 19 -40 34
-51 34 -18 0 -13 8 28 50 49 50 78 62 88 36z m121 -38 c31 -49 30 -98 -1 -67
-6 6 -30 10 -52 7 -50 -4 -54 11 -12 53 35 35 46 36 65 7z m-219 -98 c8 -6 18
-28 22 -49 9 -43 9 -46 -2 -94 l-8 -39 -41 39 c-43 41 -84 63 -116 63 -28 0
-25 12 12 46 59 53 98 63 133 34z m215 -15 c16 -8 37 -27 48 -42 21 -30 47
-101 40 -109 -3 -2 -20 2 -39 10 -64 26 -108 27 -185 2 l-21 -7 18 58 c20 61
57 103 90 103 11 0 33 -7 49 -15z m-612 -73 c6 -21 10 -60 7 -87 -3 -39 -10
-55 -39 -83 l-35 -35 0 111 c-1 95 2 113 17 121 29 17 38 12 50 -27z m756 -23
c-9 -10 -18 -18 -19 -17 -1 2 -7 18 -13 35 l-11 33 30 -16 c30 -15 30 -16 13
-35z m-455 -24 c57 -29 86 -96 68 -160 -3 -11 -6 -24 -6 -29 -1 -5 -25 16 -53
46 -53 55 -120 88 -177 88 -25 0 -24 1 13 39 35 36 42 39 82 35 24 -2 57 -10
73 -19z m593 -35 c60 -44 66 -58 24 -58 -48 0 -77 -11 -107 -39 l-26 -24 -14
48 c-15 55 -14 71 9 96 22 24 59 17 114 -23z m-222 -39 c45 -27 62 -51 75
-103 l7 -27 -30 15 c-69 34 -172 40 -254 14 -34 -11 -63 -18 -65 -16 -10 10
33 100 55 114 69 46 140 47 212 3z m308 -63 c25 -2 -4 -16 -70 -32 -89 -21
-105 -21 -87 1 23 27 71 44 109 37 19 -3 41 -6 48 -6z m-1100 -733 c3 -16 1
-18 -9 -8 -9 9 -16 10 -26 2 -10 -9 -13 -8 -13 3 0 34 42 37 48 3z m100 0 c3
-16 1 -18 -9 -8 -9 9 -16 10 -26 2 -10 -9 -13 -8 -13 3 0 34 42 37 48 3z"/>
</g>
</svg>
