<?xml version="1.0" encoding="UTF-8" standalone="no"?>
<svg width="22px" height="209px" viewBox="0 0 22 209" version="1.1" xmlns="http://www.w3.org/2000/svg" xmlns:xlink="http://www.w3.org/1999/xlink">
    <!-- Generator: Sketch 43.2 (39069) - http://www.bohemiancoding.com/sketch -->
    <title>boost_sprite</title>
    <desc>Created with Sketch.</desc>
    <defs></defs>
    <g id="Page-1" stroke="none" stroke-width="1" fill="none" fill-rule="evenodd">
        <g id="boost_sprite">
            <g id="active_1-copy-2" transform="translate(3.000000, 191.189573)" fill="#7C59A0">
                <path d="M11.2024093,1.80236557 C11.2558276,2.24046213 10.6494408,2.64016989 9.84806146,2.69501105 C9.0465772,2.7496413 8.35350374,2.43873405 8.30019039,2.00053202 C8.27028035,1.75406315 8.44900598,1.51972262 8.75366865,1.35214066 C8.78326386,1.3360047 8.81411843,1.3202906 8.84612742,1.30531474 C9.0697706,1.20048374 9.34809144,1.12887382 9.65485306,1.10799199 C10.4563373,1.05315083 11.1490959,1.36405807 11.2024093,1.80236557 M15.2401604,1.50411398 C13.405048,1.83474295 11.1427991,-0.944438755 8.28171963,0.550194028 L8.28161468,0.550299492 C7.75183957,0.827036468 7.20138979,1.25047357 6.62942577,1.86722579 C5.57785156,2.20829568 3.22303897,2.45276074 1.86186955,3.32716099 C-0.103272876,4.58945705 3.22387855,7.64115718 4.02315891,7.24366417 C4.55073012,6.9811648 5.85932083,6.42621436 6.24804646,6.38613812 L6.0215697,6.06869212 L6.2551829,5.75662478 C6.61294901,5.27919022 6.85852622,4.71506442 7.01122487,4.06941512 L7.14230434,3.32652821 C7.1439835,3.31418895 7.1457676,3.30206061 7.14713192,3.28972135 L8.19807645,3.41448501 C8.08420838,4.38127154 7.81785156,5.28013939 7.33383357,6.05466544 C7.8245682,6.69588526 8.49287405,7.42569466 9.2945682,8.03031855 C10.6754678,8.99847611 12.2444333,9.76076836 13.6528291,9.26688145 C12.499036,8.72637954 11.6245082,8.08547611 11.0320794,7.40586747 C10.3638785,6.63893482 10.0303553,5.78900216 10.212964,4.99348882 C10.3499205,4.39698564 10.7855577,3.91712541 11.4103103,3.61760826 C11.6186312,3.51783952 11.8478366,3.43810889 12.0940435,3.38063113 C13.0322744,3.16179377 14.2554378,3.20967433 15.7923943,3.58596912 C15.9403703,2.83939098 15.7053928,2.16273532 15.2401604,1.50411398" id="Fill-1"></path>
                <path d="M13.1615892,4.53238005 C13.1597001,4.5316418 13.157916,4.53111449 13.156027,4.53058717 C12.8985907,4.46857446 12.6701199,4.49631144 12.5235082,4.5304817 C12.3709145,4.56612846 12.252009,4.64891753 12.1565067,4.71546518 C12.1193553,4.74130381 12.0846177,4.76566595 12.0512443,4.78486036 C12.0325637,4.79540673 12.0223838,4.81628856 12.0252174,4.83769771 C12.0280509,4.8590014 12.0434782,4.87650839 12.0642578,4.88178158 L12.2729985,4.9370446 L12.0831484,5.62498488 L11.7250674,5.53344231 C11.7082758,5.52943469 11.690015,5.53460241 11.6771064,5.54662529 C11.6643028,5.55885909 11.6586357,5.57668247 11.6616791,5.59418945 C11.7013493,5.81534701 11.8188905,6.05981207 12.0014992,6.30121868 C12.0068515,6.30828475 12.013883,6.31387433 12.021964,6.3174601 C14.3532683,7.36429365 14.2265967,9.45890991 14.079985,11.8844715 C14.0611994,12.1945351 14.041889,12.5152504 14.0283508,12.8299544 C14.027931,12.8322746 13.9863718,13.0662987 13.8171964,13.2806011 C13.6804497,13.4538781 13.4594303,13.5385656 13.1548725,13.5291793 L3.75220387,13.5287574 C3.7149475,13.5287574 3.67842576,13.4919506 3.67842576,13.4545109 L3.62143925,7.92251347 C2.81565215,7.78013736 1.40463266,6.55633558 0.927856043,5.44411449 C0.5563418,5.97174981 0.529999971,6.40077649 0.529999971,7.09493914 L0.529999971,13.4545109 C0.529999971,15.2400128 1.97544225,16.692671 3.75220387,16.692671 L13.1340929,16.692671 C14.8257421,16.692671 16.7923538,15.2625821 16.7922488,13.4212898 L16.7994902,13.2665745 C16.9968965,9.03589466 17.1394153,5.97913227 13.1615892,4.53238005" id="Fill-4"></path>
            </g>
            <g id="active_8" transform="translate(3.000000, 133.000000)" fill="#7C59A0">
                <path d="M5.88153642,8.49503354 C5.82811813,8.05683151 6.43450494,7.65712376 7.23588425,7.60228259 C8.03736851,7.54765235 8.73044197,7.85855959 8.78375531,8.29676162 C8.81366536,8.54323049 8.63493972,8.77757103 8.33027705,8.94515298 C8.30068185,8.96139441 8.26982728,8.97700305 8.23781828,8.9919789 C8.0141751,9.09680991 7.73585426,9.16841982 7.42909264,9.18930165 C6.62771333,9.24414282 5.93484977,8.93323557 5.88153642,8.49503354 M1.84389025,8.79328513 C3.67900269,8.4625507 5.94125157,11.2417324 8.80222608,9.74709962 L8.80233103,9.74699415 C9.33210614,9.47025718 9.88255591,9.04682007 10.4545199,8.43006785 C11.5060941,8.08899796 13.8609067,7.84453291 15.2220762,6.97013265 C17.1872186,5.70783659 13.8600672,2.65613646 13.0607868,3.05362948 C12.5332156,3.31612884 11.2246249,3.87107928 10.8358992,3.91115552 L11.062376,4.22860152 L10.8287628,4.54066887 C10.4709967,5.01810343 10.2254195,5.58222922 10.0727208,6.22787852 L9.94164137,6.97076543 C9.93996221,6.98321016 9.9381781,6.99523303 9.93681378,7.0075723 L8.88586926,6.88280864 C8.99973732,5.91612757 9.26609414,5.01725972 9.75011214,4.2426282 C9.2593775,3.60140838 8.59107166,2.87159898 7.7893775,2.26697509 C6.40847795,1.29881753 4.83951244,0.536525282 3.43111663,1.03041219 C4.58490974,1.5709141 5.45954242,2.21181753 6.05186626,2.89153164 C6.72006716,3.65835883 7.0535904,4.50829148 6.8709817,5.30380482 C6.73402518,5.900308 6.29849294,6.38016823 5.67363537,6.67968538 C5.46531453,6.77945413 5.23621408,6.85929021 4.98990224,6.91676798 C4.05167136,7.13549987 2.82850794,7.08761931 1.29155142,6.71132452 C1.1435754,7.45790266 1.37855291,8.13466378 1.84389025,8.79328513" id="Fill-6" transform="translate(8.540722, 5.533732) rotate(180.000000) translate(-8.540722, -5.533732) "></path>
                <path d="M4.25223143,17.4242106 C4.25412049,17.4249488 4.2559046,17.4254761 4.25779365,17.4260034 C4.51522994,17.4880162 4.7437007,17.4602792 4.89031239,17.4261089 C5.0429061,17.3904622 5.16181164,17.3076731 5.25731389,17.2411254 C5.29446532,17.2152868 5.32920295,17.1909247 5.36257626,17.1717303 C5.38125692,17.1611839 5.39143683,17.1403021 5.38860325,17.1188929 C5.38576967,17.0975892 5.37034238,17.0800822 5.34956277,17.074809 L5.14082214,17.019546 L5.33067221,16.3316057 L5.68875317,16.4231483 C5.70554478,16.4271559 5.72380565,16.4219882 5.73671419,16.4099653 C5.74951779,16.3977315 5.75518496,16.3799082 5.75214148,16.3624012 C5.71247131,16.1412436 5.59493008,15.8967785 5.41232139,15.6553719 C5.40696907,15.6483059 5.39993758,15.6427163 5.39185662,15.6391305 C3.06055227,14.592297 3.18722394,12.4976807 3.33383563,10.0721191 C3.35262124,9.76205555 3.37193158,9.44134017 3.38546982,9.12663623 C3.38588961,9.12431603 3.42744883,8.89029189 3.59662424,8.67598947 C3.73337086,8.50271247 3.95439035,8.41802505 4.25894808,8.42741133 L13.6616167,8.42783318 C13.6988731,8.42783318 13.7353949,8.46464004 13.7353949,8.50207969 L13.7923814,14.0340771 C14.5981685,14.1764533 16.009188,15.400255 16.4859646,16.5124761 C16.8574788,15.9848408 16.8838206,15.5558141 16.8838206,14.8616515 L16.8838206,8.50207969 C16.8838206,6.71657778 15.4383784,5.26391959 13.6616167,5.26391959 L4.27972769,5.26391959 C2.58807851,5.26391959 0.621466817,6.69400853 0.621571764,8.53530078 L0.614330385,8.69001616 C0.416924088,12.920696 0.274405347,15.9774583 4.25223143,17.4242106" id="Fill-8" transform="translate(8.709338, 11.363380) rotate(180.000000) translate(-8.709338, -11.363380) "></path>
            </g>
            <g id="active_8-copy-2" transform="translate(3.000000, 152.000000)" fill="#7C59A0">
                <path d="M5.88153642,8.49503354 C5.82811813,8.05683151 6.43450494,7.65712376 7.23588425,7.60228259 C8.03736851,7.54765235 8.73044197,7.85855959 8.78375531,8.29676162 C8.81366536,8.54323049 8.63493972,8.77757103 8.33027705,8.94515298 C8.30068185,8.96139441 8.26982728,8.97700305 8.23781828,8.9919789 C8.0141751,9.09680991 7.73585426,9.16841982 7.42909264,9.18930165 C6.62771333,9.24414282 5.93484977,8.93323557 5.88153642,8.49503354 M1.84389025,8.79328513 C3.67900269,8.4625507 5.94125157,11.2417324 8.80222608,9.74709962 L8.80233103,9.74699415 C9.33210614,9.47025718 9.88255591,9.04682007 10.4545199,8.43006785 C11.5060941,8.08899796 13.8609067,7.84453291 15.2220762,6.97013265 C17.1872186,5.70783659 13.8600672,2.65613646 13.0607868,3.05362948 C12.5332156,3.31612884 11.2246249,3.87107928 10.8358992,3.91115552 L11.062376,4.22860152 L10.8287628,4.54066887 C10.4709967,5.01810343 10.2254195,5.58222922 10.0727208,6.22787852 L9.94164137,6.97076543 C9.93996221,6.98321016 9.9381781,6.99523303 9.93681378,7.0075723 L8.88586926,6.88280864 C8.99973732,5.91612757 9.26609414,5.01725972 9.75011214,4.2426282 C9.2593775,3.60140838 8.59107166,2.87159898 7.7893775,2.26697509 C6.40847795,1.29881753 4.83951244,0.536525282 3.43111663,1.03041219 C4.58490974,1.5709141 5.45954242,2.21181753 6.05186626,2.89153164 C6.72006716,3.65835883 7.0535904,4.50829148 6.8709817,5.30380482 C6.73402518,5.900308 6.29849294,6.38016823 5.67363537,6.67968538 C5.46531453,6.77945413 5.23621408,6.85929021 4.98990224,6.91676798 C4.05167136,7.13549987 2.82850794,7.08761931 1.29155142,6.71132452 C1.1435754,7.45790266 1.37855291,8.13466378 1.84389025,8.79328513" id="Fill-6" transform="translate(8.540722, 5.533732) rotate(180.000000) translate(-8.540722, -5.533732) "></path>
                <path d="M4.25223143,17.4242106 C4.25412049,17.4249488 4.2559046,17.4254761 4.25779365,17.4260034 C4.51522994,17.4880162 4.7437007,17.4602792 4.89031239,17.4261089 C5.0429061,17.3904622 5.16181164,17.3076731 5.25731389,17.2411254 C5.29446532,17.2152868 5.32920295,17.1909247 5.36257626,17.1717303 C5.38125692,17.1611839 5.39143683,17.1403021 5.38860325,17.1188929 C5.38576967,17.0975892 5.37034238,17.0800822 5.34956277,17.074809 L5.14082214,17.019546 L5.33067221,16.3316057 L5.68875317,16.4231483 C5.70554478,16.4271559 5.72380565,16.4219882 5.73671419,16.4099653 C5.74951779,16.3977315 5.75518496,16.3799082 5.75214148,16.3624012 C5.71247131,16.1412436 5.59493008,15.8967785 5.41232139,15.6553719 C5.40696907,15.6483059 5.39993758,15.6427163 5.39185662,15.6391305 C3.06055227,14.592297 3.18722394,12.4976807 3.33383563,10.0721191 C3.35262124,9.76205555 3.37193158,9.44134017 3.38546982,9.12663623 C3.38588961,9.12431603 3.42744883,8.89029189 3.59662424,8.67598947 C3.73337086,8.50271247 3.95439035,8.41802505 4.25894808,8.42741133 L13.6616167,8.42783318 C13.6988731,8.42783318 13.7353949,8.46464004 13.7353949,8.50207969 L13.7923814,14.0340771 C14.5981685,14.1764533 16.009188,15.400255 16.4859646,16.5124761 C16.8574788,15.9848408 16.8838206,15.5558141 16.8838206,14.8616515 L16.8838206,8.50207969 C16.8838206,6.71657778 15.4383784,5.26391959 13.6616167,5.26391959 L4.27972769,5.26391959 C2.58807851,5.26391959 0.621466817,6.69400853 0.621571764,8.53530078 L0.614330385,8.69001616 C0.416924088,12.920696 0.274405347,15.9774583 4.25223143,17.4242106" id="Fill-8" transform="translate(8.709338, 11.363380) rotate(180.000000) translate(-8.709338, -11.363380) "></path>
            </g>
            <g id="active_8-copy-3" transform="translate(3.000000, 171.600006)" fill="#7C59A0">
                <path d="M5.88153642,8.49503354 C5.82811813,8.05683151 6.43450494,7.65712376 7.23588425,7.60228259 C8.03736851,7.54765235 8.73044197,7.85855959 8.78375531,8.29676162 C8.81366536,8.54323049 8.63493972,8.77757103 8.33027705,8.94515298 C8.30068185,8.96139441 8.26982728,8.97700305 8.23781828,8.9919789 C8.0141751,9.09680991 7.73585426,9.16841982 7.42909264,9.18930165 C6.62771333,9.24414282 5.93484977,8.93323557 5.88153642,8.49503354 M1.84389025,8.79328513 C3.67900269,8.4625507 5.94125157,11.2417324 8.80222608,9.74709962 L8.80233103,9.74699415 C9.33210614,9.47025718 9.88255591,9.04682007 10.4545199,8.43006785 C11.5060941,8.08899796 13.8609067,7.84453291 15.2220762,6.97013265 C17.1872186,5.70783659 13.8600672,2.65613646 13.0607868,3.05362948 C12.5332156,3.31612884 11.2246249,3.87107928 10.8358992,3.91115552 L11.062376,4.22860152 L10.8287628,4.54066887 C10.4709967,5.01810343 10.2254195,5.58222922 10.0727208,6.22787852 L9.94164137,6.97076543 C9.93996221,6.98321016 9.9381781,6.99523303 9.93681378,7.0075723 L8.88586926,6.88280864 C8.99973732,5.91612757 9.26609414,5.01725972 9.75011214,4.2426282 C9.2593775,3.60140838 8.59107166,2.87159898 7.7893775,2.26697509 C6.40847795,1.29881753 4.83951244,0.536525282 3.43111663,1.03041219 C4.58490974,1.5709141 5.45954242,2.21181753 6.05186626,2.89153164 C6.72006716,3.65835883 7.0535904,4.50829148 6.8709817,5.30380482 C6.73402518,5.900308 6.29849294,6.38016823 5.67363537,6.67968538 C5.46531453,6.77945413 5.23621408,6.85929021 4.98990224,6.91676798 C4.05167136,7.13549987 2.82850794,7.08761931 1.29155142,6.71132452 C1.1435754,7.45790266 1.37855291,8.13466378 1.84389025,8.79328513" id="Fill-6" transform="translate(8.540722, 5.533732) rotate(180.000000) translate(-8.540722, -5.533732) "></path>
                <path d="M4.25223143,17.4242106 C4.25412049,17.4249488 4.2559046,17.4254761 4.25779365,17.4260034 C4.51522994,17.4880162 4.7437007,17.4602792 4.89031239,17.4261089 C5.0429061,17.3904622 5.16181164,17.3076731 5.25731389,17.2411254 C5.29446532,17.2152868 5.32920295,17.1909247 5.36257626,17.1717303 C5.38125692,17.1611839 5.39143683,17.1403021 5.38860325,17.1188929 C5.38576967,17.0975892 5.37034238,17.0800822 5.34956277,17.074809 L5.14082214,17.019546 L5.33067221,16.3316057 L5.68875317,16.4231483 C5.70554478,16.4271559 5.72380565,16.4219882 5.73671419,16.4099653 C5.74951779,16.3977315 5.75518496,16.3799082 5.75214148,16.3624012 C5.71247131,16.1412436 5.59493008,15.8967785 5.41232139,15.6553719 C5.40696907,15.6483059 5.39993758,15.6427163 5.39185662,15.6391305 C3.06055227,14.592297 3.18722394,12.4976807 3.33383563,10.0721191 C3.35262124,9.76205555 3.37193158,9.44134017 3.38546982,9.12663623 C3.38588961,9.12431603 3.42744883,8.89029189 3.59662424,8.67598947 C3.73337086,8.50271247 3.95439035,8.41802505 4.25894808,8.42741133 L13.6616167,8.42783318 C13.6988731,8.42783318 13.7353949,8.46464004 13.7353949,8.50207969 L13.7923814,14.0340771 C14.5981685,14.1764533 16.009188,15.400255 16.4859646,16.5124761 C16.8574788,15.9848408 16.8838206,15.5558141 16.8838206,14.8616515 L16.8838206,8.50207969 C16.8838206,6.71657778 15.4383784,5.26391959 13.6616167,5.26391959 L4.27972769,5.26391959 C2.58807851,5.26391959 0.621466817,6.69400853 0.621571764,8.53530078 L0.614330385,8.69001616 C0.416924088,12.920696 0.274405347,15.9774583 4.25223143,17.4242106" id="Fill-8" transform="translate(8.709338, 11.363380) rotate(180.000000) translate(-8.709338, -11.363380) "></path>
            </g>
            <g id="active_7" transform="translate(3.000000, 113.919431)" fill="#7C59A0">
                <path d="M5.88153642,8.49503354 C5.82811813,8.05683151 6.43450494,7.65712376 7.23588425,7.60228259 C8.03736851,7.54765235 8.73044197,7.85855959 8.78375531,8.29676162 C8.81366536,8.54323049 8.63493972,8.77757103 8.33027705,8.94515298 C8.30068185,8.96139441 8.26982728,8.97700305 8.23781828,8.9919789 C8.0141751,9.09680991 7.73585426,9.16841982 7.42909264,9.18930165 C6.62771333,9.24414282 5.93484977,8.93323557 5.88153642,8.49503354 M1.84389025,8.79328513 C3.67900269,8.4625507 5.94125157,11.2417324 8.80222608,9.74709962 L8.80233103,9.74699415 C9.33210614,9.47025718 9.88255591,9.04682007 10.4545199,8.43006785 C11.5060941,8.08899796 13.8609067,7.84453291 15.2220762,6.97013265 C17.1872186,5.70783659 13.8600672,2.65613646 13.0607868,3.05362948 C12.5332156,3.31612884 11.2246249,3.87107928 10.8358992,3.91115552 L11.062376,4.22860152 L10.8287628,4.54066887 C10.4709967,5.01810343 10.2254195,5.58222922 10.0727208,6.22787852 L9.94164137,6.97076543 C9.93996221,6.98321016 9.9381781,6.99523303 9.93681378,7.0075723 L8.88586926,6.88280864 C8.99973732,5.91612757 9.26609414,5.01725972 9.75011214,4.2426282 C9.2593775,3.60140838 8.59107166,2.87159898 7.7893775,2.26697509 C6.40847795,1.29881753 4.83951244,0.536525282 3.43111663,1.03041219 C4.58490974,1.5709141 5.45954242,2.21181753 6.05186626,2.89153164 C6.72006716,3.65835883 7.0535904,4.50829148 6.8709817,5.30380482 C6.73402518,5.900308 6.29849294,6.38016823 5.67363537,6.67968538 C5.46531453,6.77945413 5.23621408,6.85929021 4.98990224,6.91676798 C4.05167136,7.13549987 2.82850794,7.08761931 1.29155142,6.71132452 C1.1435754,7.45790266 1.37855291,8.13466378 1.84389025,8.79328513" id="Fill-6" transform="translate(8.540722, 5.533732) rotate(180.000000) translate(-8.540722, -5.533732) "></path>
                <path d="M4.25223143,17.4242106 C4.25412049,17.4249488 4.2559046,17.4254761 4.25779365,17.4260034 C4.51522994,17.4880162 4.7437007,17.4602792 4.89031239,17.4261089 C5.0429061,17.3904622 5.16181164,17.3076731 5.25731389,17.2411254 C5.29446532,17.2152868 5.32920295,17.1909247 5.36257626,17.1717303 C5.38125692,17.1611839 5.39143683,17.1403021 5.38860325,17.1188929 C5.38576967,17.0975892 5.37034238,17.0800822 5.34956277,17.074809 L5.14082214,17.019546 L5.33067221,16.3316057 L5.68875317,16.4231483 C5.70554478,16.4271559 5.72380565,16.4219882 5.73671419,16.4099653 C5.74951779,16.3977315 5.75518496,16.3799082 5.75214148,16.3624012 C5.71247131,16.1412436 5.59493008,15.8967785 5.41232139,15.6553719 C5.40696907,15.6483059 5.39993758,15.6427163 5.39185662,15.6391305 C3.06055227,14.592297 3.18722394,12.4976807 3.33383563,10.0721191 C3.35262124,9.76205555 3.37193158,9.44134017 3.38546982,9.12663623 C3.38588961,9.12431603 3.42744883,8.89029189 3.59662424,8.67598947 C3.73337086,8.50271247 3.95439035,8.41802505 4.25894808,8.42741133 L13.6616167,8.42783318 C13.6988731,8.42783318 13.7353949,8.46464004 13.7353949,8.50207969 L13.7923814,14.0340771 C14.5981685,14.1764533 16.009188,15.400255 16.4859646,16.5124761 C16.8574788,15.9848408 16.8838206,15.5558141 16.8838206,14.8616515 L16.8838206,8.50207969 C16.8838206,6.71657778 15.4383784,5.26391959 13.6616167,5.26391959 L4.27972769,5.26391959 C2.58807851,5.26391959 0.621466817,6.69400853 0.621571764,8.53530078 L0.614330385,8.69001616 C0.416924088,12.920696 0.274405347,15.9774583 4.25223143,17.4242106" id="Fill-8" transform="translate(8.709338, 11.363380) rotate(180.000000) translate(-8.709338, -11.363380) "></path>
            </g>
            <g id="active_6" transform="translate(1.000000, 98.099526)" fill="#7C59A0">
                <path d="M6.97734356,9.46516653 C6.57612916,9.51452358 6.21007219,8.95366717 6.15990727,8.21257314 C6.10974236,7.47147911 6.39456994,6.83068114 6.79588928,6.78121863 C7.02152646,6.75348165 7.23614416,6.9187434 7.38968239,7.20054264 C7.40437504,7.22796323 7.4188578,7.25654391 7.43250098,7.28607377 C7.52852796,7.49288826 7.59401522,7.7502199 7.61332556,8.03402295 C7.66338553,8.77511697 7.37876784,9.41580948 6.97734356,9.46516653 M7.25052197,13.1990064 C6.94774835,11.5019886 9.49272586,9.40990351 8.12400023,6.76413349 L8.12400023,6.76402803 C7.870447,6.27404328 7.34161642,4.8207523 6.61831807,4.54918305 C5.95956245,3.7708603 4.36729858,2.24205725 3.14822811,1.38685141 C1.3882581,0.152292324 -0.0222366541,4.06953375 0.595484485,4.61235586 C1.00341552,4.97082727 2.22280083,5.15602168 2.39355045,5.47410046 L2.58235105,5.16878279 L3.35623411,4.89014747 C3.7934455,5.2208819 4.30999723,5.4480509 4.90137654,5.58926691 L5.5816464,5.7104448 C5.59298074,5.71192129 5.60400023,5.71360872 5.61522961,5.71487428 L5.50115165,6.68672307 C4.61570937,6.58147021 3.79260592,6.33510681 3.08337054,5.8875185 C2.49618913,6.34143464 1.82788329,6.95934696 1.27418014,7.70086285 C0.387478488,8.97781837 -0.310422561,10.4286837 0.141691382,11.731056 C0.636728863,10.6642898 1.22370038,9.85538254 1.84603921,9.30760363 C2.54824311,8.68958584 3.32663891,8.3813152 4.05507969,8.55005725 C4.60133156,8.67671926 5.0408518,9.07959093 5.31507969,9.65732155 C5.40638404,9.85000389 5.47953246,10.0619861 5.53211117,10.2895769 C5.732456,11.1572275 5.68869288,12.2885376 5.3440452,13.709873 C6.02767339,13.8465541 6.64728359,13.6292987 7.25052197,13.1990064" id="Fill-14" transform="translate(4.265647, 7.449045) rotate(180.000000) translate(-4.265647, -7.449045) "></path>
                <path d="M18.5695052,8.74716438 L18.4722189,8.99342232 L18.4711694,8.99764088 L18.470015,9.00207035 L18.4334932,9.13442741 L17.6477511,8.91548459 L17.6831184,8.78755701 L17.735907,8.57842232 L17.7522788,8.5071288 C17.5632683,8.54129907 17.2989055,8.53623681 17.1283658,8.81307925 C17.1174513,8.8306917 16.9781859,9.08907798 16.9716791,9.10879971 C16.2363118,11.3573931 13.5769415,10.539416 10.9102249,10.3554871 C10.8069565,10.3484211 7.39689653,9.95757226 7.39689653,9.95757226 C6.8871664,9.85453414 6.95853072,9.61291661 6.95853072,9.51715549 L6.95853072,3.1575837 C6.95853072,3.05865866 7.03902547,2.9778734 7.1373613,2.9778734 L14.3216492,2.9778734 C14.0746027,2.35184037 14.385982,1.40076794 14.506042,1.07963071 C14.6404797,0.720315589 14.8236132,0.352457902 15.04988,0.0248873808 L7.1373613,0.0248873808 C5.41569713,0.0248873808 4.01999998,1.42745028 4.01999998,3.1575837 L4.01999998,9.51715549 C4.01999998,11.2472889 5.41569713,12.6498518 7.1373613,12.6498518 C7.1373613,12.6498518 10.1733883,12.9771059 11.3125937,13.042388 C14.1432384,13.2042749 17.3468665,13.8415926 18.7503298,9.94460021 C18.8050075,9.71553287 18.8452024,9.35136642 18.8061619,9.1822025 C18.7596701,8.98076667 18.6381409,8.86844774 18.5695052,8.74716438" id="Fill-17" transform="translate(11.420871, 6.603044) rotate(180.000000) translate(-11.420871, -6.603044) "></path>
            </g>
            <g id="active_5" transform="translate(1.000000, 78.279621)" fill="#7C59A0">
                <path d="M9.3800839,8.42488426 C9.13114837,8.74496685 8.47764013,8.60849671 7.92078855,8.11998845 C7.36372708,7.63169112 7.11416187,6.97623369 7.36320234,6.6561511 C7.50330729,6.47601895 7.77134327,6.44058312 8.07820984,6.53075465 C8.10790999,6.53961361 8.13813488,6.54952721 8.16856966,6.56060091 L8.16867461,6.56060091 C8.38203293,6.63864411 8.60945422,6.77416507 8.82260264,6.9610469 C9.37955917,7.44955516 9.62922933,8.10480167 9.3800839,8.42488426 M12.2005487,10.8710113 C10.7923628,9.88619049 11.119799,6.59856787 8.29030879,5.70022734 L8.29020384,5.70022734 C7.76620085,5.53391094 6.36955917,4.88203928 5.66714537,5.20402022 C4.65366711,5.121653 2.56584103,4.49604182 1.10213788,4.75759201 C-1.01098056,5.13515237 0.747939976,8.90738108 1.56684552,8.85232899 C2.10732528,8.81583852 2.98594597,8.75646241 3.3304887,8.86002784 L3.24915437,8.50999354 L3.60041374,7.763099 C4.14225782,7.68611044 4.66741524,7.47982327 5.18480654,7.15942429 L5.75120834,6.76172035 C5.76023383,6.75475974 5.76925932,6.74811552 5.77817986,6.74094398 L6.38120834,7.50935313 C5.68110339,8.06398718 4.92579605,8.47476863 4.1090944,8.66217778 C4.01338225,9.40042429 3.97560115,10.3122642 4.10584103,11.2300101 C4.37744522,12.7630317 4.9047016,14.2848741 6.1410884,14.8845412 C5.7402938,13.778437 5.58623083,12.7895031 5.64080354,11.9598195 C5.70251269,11.0238284 6.03603593,10.2525717 6.66991899,9.85444589 C7.14533128,9.55577244 7.73943923,9.52845732 8.33994897,9.74202149 C8.5400839,9.81331501 8.74084852,9.91139633 8.93835977,10.0349999 C9.69041374,10.5060012 10.4553763,11.3370558 11.211943,12.5870126 C11.7915682,12.1978512 12.0768155,11.6039846 12.2005487,10.8710113" id="Fill-10" transform="translate(6.150274, 9.789315) rotate(180.000000) translate(-6.150274, -9.789315) "></path>
                <path d="M17.8127886,6.08080058 C17.6903148,5.87999753 17.5293253,5.74025801 17.3825037,5.64839906 C17.207976,5.53913857 17.0174963,5.53576373 16.8835832,5.49874594 L16.9469715,5.60579169 L16.9491754,5.60958838 L16.9514843,5.61349054 L17.0187556,5.73298101 L16.3091004,6.13659092 L16.244033,6.02100261 L16.1342579,5.83570274 L16.0956372,5.77347911 C15.9825037,5.93726437 15.8903598,6.17445242 15.8472264,6.49200388 C16.7050675,8.74618686 16.3533883,9.68861125 15.0377661,10.3188628 C15.0222339,10.3134842 15.0086957,10.309793 14.9992504,10.309793 L5.61736132,10.309793 C5.51892054,10.309793 5.43853073,10.2289022 5.43853073,10.1300827 L5.43853073,3.77051087 C5.43853073,3.67158584 5.51892054,3.59080058 5.61736132,3.59080058 L8.97011994,3.59080058 C9.11641679,3.59080058 9.26145427,3.56348546 9.39778111,3.51043718 L9.49076462,3.34918305 C8.85289355,2.75816399 8.35827586,1.54743972 8.28218891,0.67936729 C8.28092954,0.665129679 8.28092954,0.651735778 8.27988006,0.637814558 L5.61736132,0.637814558 C3.89569715,0.637814558 2.5,2.04037745 2.5,3.77051087 L2.5,10.1300827 C2.5,11.8602161 3.89569715,13.262779 5.61736132,13.262779 L14.7337331,13.262779 C14.9213793,13.262779 15.1081859,13.2333546 15.2870165,13.1755604 C16.5921439,12.7538107 17.7498201,12.0047015 18.043988,10.7626545 C18.652054,9.57797974 18.7133433,8.01247529 17.8127886,6.08080058" id="Fill-12" transform="translate(10.497962, 6.950297) rotate(180.000000) translate(-10.497962, -6.950297) "></path>
            </g>
            <g id="active_4" transform="translate(3.000000, 58.459716)" fill="#7C59A0">
                <path d="M5.79403851,15.4275702 C5.74062022,14.9893682 6.34700702,14.5896605 7.14838633,14.5348193 C7.94987059,14.480189 8.64294405,14.7910963 8.6962574,15.2292983 C8.72616744,15.4757672 8.54744181,15.7101077 8.24277914,15.8776897 C8.21318393,15.8939311 8.18232936,15.9095397 8.15032037,15.9245156 C7.92667719,16.0293466 7.64835635,16.1009565 7.34159473,16.1218383 C6.54021542,16.1766795 5.84735185,15.8657723 5.79403851,15.4275702 M1.75639233,15.7258218 C3.59150477,15.3950874 5.85375365,18.1742691 8.71472816,16.6796363 L8.71483311,16.6795309 C9.24460822,16.4027939 9.795058,15.9793568 10.367022,15.3626045 C11.4185962,15.0215347 13.7734088,14.7770696 15.1345782,13.9026694 C17.0997207,12.6403733 13.7725692,9.58867316 12.9732889,9.98616618 C12.4457177,10.2486655 11.137127,10.803616 10.7484013,10.8436922 L10.9748781,11.1611382 L10.7412649,11.4732056 C10.3834988,11.9506401 10.1379216,12.5147659 9.98522291,13.1604152 L9.85414345,13.9033021 C9.85246429,13.9157469 9.85068019,13.9277697 9.84931587,13.940109 L8.79837134,13.8153453 C8.91223941,12.8486643 9.17859623,11.9497964 9.66261422,11.1751649 C9.17187959,10.5339451 8.50357374,9.80413568 7.70187959,9.19951179 C6.32098004,8.23135423 4.75201452,7.46906198 3.34361872,7.96294889 C4.49741182,8.5034508 5.3720445,9.14435423 5.96436834,9.82406834 C6.63256924,10.5908955 6.96609248,11.4408282 6.78348378,12.2363415 C6.64652726,12.8328447 6.21099503,13.3127049 5.58613746,13.6122221 C5.37781662,13.7119908 5.14871617,13.7918269 4.90240432,13.8493047 C3.96417344,14.0680366 2.74101002,14.020156 1.2040535,13.6438612 C1.05607749,14.3904394 1.291055,15.0672005 1.75639233,15.7258218" id="Fill-6"></path>
                <path d="M3.82737526,12.7005753 C3.82926431,12.7013136 3.83104842,12.7018409 3.83293748,12.7023682 C4.09037376,12.7643809 4.31884452,12.736644 4.46545622,12.7024737 C4.61804992,12.6668269 4.73695547,12.5840379 4.83245772,12.5174902 C4.86960914,12.4916516 4.90434677,12.4672894 4.93772008,12.448095 C4.95640074,12.4375487 4.96658065,12.4166668 4.96374707,12.3952577 C4.96091349,12.373954 4.9454862,12.356447 4.92470659,12.3511738 L4.71596596,12.2959108 L4.90581604,11.6079705 L5.263897,11.6995131 C5.2806886,11.7035207 5.29894947,11.698353 5.31185802,11.6863301 C5.32466161,11.6740963 5.33032878,11.6562729 5.3272853,11.6387659 C5.28761514,11.4176084 5.17007391,11.1731433 4.98746521,10.9317367 C4.98211289,10.9246706 4.9750814,10.9190811 4.96700044,10.9154953 C2.6356961,9.86866174 2.76236776,7.77404548 2.90897946,5.34848385 C2.92776506,5.03842032 2.94707541,4.71770494 2.96061364,4.40300101 C2.96103343,4.4006808 3.00259265,4.16665666 3.17176806,3.95235425 C3.30851469,3.77907724 3.52953418,3.69438982 3.8340919,3.7037761 L13.2367606,3.70419796 C13.2740169,3.70419796 13.3105387,3.74100482 13.3105387,3.77844446 L13.3675252,9.31044192 C14.1733123,9.45281803 15.5843318,10.6766198 16.0611084,11.7888409 C16.4326226,11.2612056 16.4589645,10.8321789 16.4589645,10.1380163 L16.4589645,3.77844446 C16.4589645,1.99294256 15.0135222,0.54028436 13.2367606,0.54028436 L3.85487151,0.54028436 C2.16322233,0.54028436 0.19661064,1.97037331 0.196715587,3.81166555 L0.189474208,3.96638093 C-0.00793208892,8.19706073 -0.15045083,11.2538231 3.82737526,12.7005753" id="Fill-8"></path>
            </g>
            <g id="active_3" transform="translate(3.000000, 40.639810)" fill="#7C59A0">
                <path d="M17.3773432,8.56707702 C16.9761288,8.61643407 16.6100718,8.05557765 16.5599069,7.31448362 C16.509742,6.5733896 16.7945696,5.93259163 17.1958889,5.88312911 C17.4215261,5.85539214 17.6361438,6.02065389 17.789682,6.30245313 C17.8043747,6.32987371 17.8188574,6.3584544 17.8325006,6.38798426 C17.9285276,6.59479874 17.9940148,6.85213038 18.0133252,7.13593343 C18.0633852,7.87702746 17.7787675,8.51771996 17.3773432,8.56707702 M17.6505216,12.3009169 C17.347748,10.6038991 19.8927255,8.51181399 18.5239998,5.86604398 L18.5239998,5.86593852 C18.2704466,5.37595376 17.741616,3.92266278 17.0183177,3.65109353 C16.3595621,2.87277079 14.7672982,1.34396774 13.5482277,0.488761895 C11.7882577,-0.74579719 10.377763,3.17144423 10.9954841,3.71426634 C11.4034151,4.07273775 12.6228004,4.25793216 12.7935501,4.57601094 L12.9823507,4.27069328 L13.7562337,3.99205796 C14.1934451,4.32279239 14.7099968,4.54996139 15.3013762,4.6911774 L15.981646,4.81235529 C15.9929804,4.81383178 16.0039998,4.8155192 16.0152292,4.81678477 L15.9011513,5.78863356 C15.015709,5.6833807 14.1926055,5.4370173 13.4833702,4.98942899 C12.8961888,5.44334512 12.2278829,6.06125745 11.6741798,6.80277333 C10.7874781,8.07972886 10.0895771,9.53059417 10.541691,10.8329665 C11.0367285,9.76620027 11.6237,8.95729303 12.2460388,8.40951412 C12.9482427,7.79149633 13.7266385,7.48322568 14.4550793,7.65196774 C15.0013312,7.77862975 15.4408514,8.18150141 15.7150793,8.75923204 C15.8063837,8.95191437 15.8795321,9.16389658 15.9321108,9.39148744 C16.1324556,10.259138 16.0886925,11.390448 15.7440448,12.8117835 C16.427673,12.9484646 17.0472832,12.7312092 17.6505216,12.3009169" id="Fill-14"></path>
                <path d="M14.6595051,9.54107727 L14.5622188,9.78733521 L14.5611693,9.79155376 L14.5600149,9.79598324 L14.5234931,9.92834029 L13.737751,9.70939747 L13.7731183,9.5814699 L13.8259069,9.37233521 L13.8422788,9.30104169 C13.6532683,9.33521196 13.3889054,9.3301497 13.2183657,9.60699214 C13.2074512,9.62460459 13.0681858,9.88299087 13.0616791,9.90271259 C12.3263117,12.151306 9.66694142,11.3333289 7.00022478,11.1494 C6.89695642,11.1423339 3.48689645,10.7514851 3.48689645,10.7514851 C2.97716631,10.648447 3.04853063,10.4068295 3.04853063,10.3110684 L3.04853063,3.95149658 C3.04853063,3.85257155 3.12902538,3.77178629 3.22736121,3.77178629 L10.4116491,3.77178629 C10.1646026,3.14575325 10.4759819,2.19468083 10.5960419,1.8735436 C10.7304797,1.51422848 10.9136131,1.14637079 11.13988,0.818800269 L3.22736121,0.818800269 C1.50569705,0.818800269 0.109999895,2.22136317 0.109999895,3.95149658 L0.109999895,10.3110684 C0.109999895,12.0412018 1.50569705,13.4437647 3.22736121,13.4437647 C3.22736121,13.4437647 6.2633882,13.7710188 7.4025936,13.8363009 C10.2332383,13.9981878 13.4368665,14.6355055 14.8403297,10.7385131 C14.8950074,10.5094458 14.9352023,10.1452793 14.8961618,9.97611539 C14.8496701,9.77467956 14.7281408,9.66236062 14.6595051,9.54107727" id="Fill-17"></path>
            </g>
            <g id="active_2" transform="translate(3.000000, 20.819905)" fill="#7C59A0">
                <path d="M15.5745592,3.84625418 C15.3256237,4.16633678 14.6721154,4.02986664 14.1152639,3.54135838 C13.5582024,3.05306105 13.3086372,2.39760361 13.5576777,2.07752102 C13.6977826,1.89738887 13.9658186,1.86195304 14.2726852,1.95212458 C14.3023853,1.96098354 14.3326102,1.97089713 14.363045,1.98197083 L14.3631499,1.98197083 C14.5765082,2.06001403 14.8039295,2.195535 15.017078,2.38241683 C15.5740345,2.87092509 15.8237046,3.52617159 15.5745592,3.84625418 M18.395024,6.29238125 C16.9868381,5.30756041 17.3142744,2.01993779 14.4847841,1.12159726 L14.4846792,1.12159726 C13.9606762,0.955280868 12.5640345,0.303409203 11.8616207,0.625390144 C10.8481424,0.543022926 8.76031634,-0.0825882554 7.29661319,0.178961935 C5.18349475,0.556522291 6.94241529,4.32875101 7.76132084,4.27369891 C8.3018006,4.23720844 9.18042129,4.17783233 9.52496402,4.28139777 L9.44362969,3.93136346 L9.79488906,3.18446892 C10.3367331,3.10748036 10.8618906,2.90119319 11.3792819,2.58079421 L11.9456837,2.18309027 C11.9547091,2.17612966 11.9637346,2.16948544 11.9726552,2.1623139 L12.5756837,2.93072305 C11.8755787,3.48535711 11.1202714,3.89613856 10.3035697,4.0835477 C10.2078576,4.82179421 10.1700765,5.73363411 10.3003163,6.65137998 C10.5719205,8.18440158 11.0991769,9.70624402 12.3355637,10.3059111 C11.9347691,9.19980692 11.7807061,8.21087299 11.8352789,7.38118938 C11.896988,6.44519828 12.2305112,5.6739416 12.8643943,5.27581581 C13.3398066,4.97714237 13.9339145,4.94982725 14.5344243,5.16339141 C14.7345592,5.23468493 14.9353238,5.33276626 15.1328351,5.45636981 C15.8848891,5.92737108 16.6498516,6.75842572 17.4064183,8.00838252 C17.9860435,7.61922115 18.2712909,7.02535457 18.395024,6.29238125" id="Fill-10"></path>
                <path d="M15.3128096,7.18020704 C15.1903358,6.97940399 15.0293463,6.83966448 14.8825247,6.74780552 C14.707997,6.63854504 14.5175172,6.63517019 14.3836042,6.59815241 L14.4469925,6.70519815 L14.4491964,6.70899484 L14.4515052,6.71289701 L14.5187766,6.83238748 L13.8091214,7.23599739 L13.744054,7.12040908 L13.6342789,6.9351092 L13.5956582,6.87288557 C13.4825247,7.03667083 13.3903808,7.27385889 13.3472474,7.59141035 C14.2050885,9.84559332 13.8534093,10.7880177 12.5377871,11.4182693 C12.5222549,11.4128907 12.5087166,11.4091994 12.4992714,11.4091994 L3.11738231,11.4091994 C3.01894153,11.4091994 2.93855172,11.3283087 2.93855172,11.2294891 L2.93855172,4.86991734 C2.93855172,4.7709923 3.01894153,4.69020704 3.11738231,4.69020704 L6.47014093,4.69020704 C6.61643778,4.69020704 6.76147526,4.66289192 6.8978021,4.60984364 L6.99078561,4.44858951 C6.35291454,3.85757045 5.85829685,2.64684618 5.7822099,1.77877375 C5.78095052,1.76453614 5.78095052,1.75114224 5.77990105,1.73722102 L3.11738231,1.73722102 C1.39571814,1.73722102 2.09895052e-05,3.13978392 2.09895052e-05,4.86991734 L2.09895052e-05,11.2294891 C2.09895052e-05,12.9596225 1.39571814,14.3621854 3.11738231,14.3621854 L12.2337541,14.3621854 C12.4214003,14.3621854 12.6082069,14.332761 12.7870375,14.2749669 C14.0921649,13.8532172 15.2498411,13.1041079 15.544009,11.8620609 C16.152075,10.6773862 16.2133643,9.11188176 15.3128096,7.18020704" id="Fill-12"></path>
            </g>
            <g id="inactive_1" transform="translate(3.000000, 1.000000)" fill="#606984">
                <path d="M11.2024093,1.80236557 C11.2558276,2.24046213 10.6494408,2.64016989 9.84806146,2.69501105 C9.0465772,2.7496413 8.35350374,2.43873405 8.30019039,2.00053202 C8.27028035,1.75406315 8.44900598,1.51972262 8.75366865,1.35214066 C8.78326386,1.3360047 8.81411843,1.3202906 8.84612742,1.30531474 C9.0697706,1.20048374 9.34809144,1.12887382 9.65485306,1.10799199 C10.4563373,1.05315083 11.1490959,1.36405807 11.2024093,1.80236557 M15.2401604,1.50411398 C13.405048,1.83474295 11.1427991,-0.944438755 8.28171963,0.550194028 L8.28161468,0.550299492 C7.75183957,0.827036468 7.20138979,1.25047357 6.62942577,1.86722579 C5.57785156,2.20829568 3.22303897,2.45276074 1.86186955,3.32716099 C-0.103272876,4.58945705 3.22387855,7.64115718 4.02315891,7.24366417 C4.55073012,6.9811648 5.85932083,6.42621436 6.24804646,6.38613812 L6.0215697,6.06869212 L6.2551829,5.75662478 C6.61294901,5.27919022 6.85852622,4.71506442 7.01122487,4.06941512 L7.14230434,3.32652821 C7.1439835,3.31418895 7.1457676,3.30206061 7.14713192,3.28972135 L8.19807645,3.41448501 C8.08420838,4.38127154 7.81785156,5.28013939 7.33383357,6.05466544 C7.8245682,6.69588526 8.49287405,7.42569466 9.2945682,8.03031855 C10.6754678,8.99847611 12.2444333,9.76076836 13.6528291,9.26688145 C12.499036,8.72637954 11.6245082,8.08547611 11.0320794,7.40586747 C10.3638785,6.63893482 10.0303553,5.78900216 10.212964,4.99348882 C10.3499205,4.39698564 10.7855577,3.91712541 11.4103103,3.61760826 C11.6186312,3.51783952 11.8478366,3.43810889 12.0940435,3.38063113 C13.0322744,3.16179377 14.2554378,3.20967433 15.7923943,3.58596912 C15.9403703,2.83939098 15.7053928,2.16273532 15.2401604,1.50411398" id="Fill-1"></path>
                <path d="M13.1615892,4.53238005 C13.1597001,4.5316418 13.157916,4.53111449 13.156027,4.53058717 C12.8985907,4.46857446 12.6701199,4.49631144 12.5235082,4.5304817 C12.3709145,4.56612846 12.252009,4.64891753 12.1565067,4.71546518 C12.1193553,4.74130381 12.0846177,4.76566595 12.0512443,4.78486036 C12.0325637,4.79540673 12.0223838,4.81628856 12.0252174,4.83769771 C12.0280509,4.8590014 12.0434782,4.87650839 12.0642578,4.88178158 L12.2729985,4.9370446 L12.0831484,5.62498488 L11.7250674,5.53344231 C11.7082758,5.52943469 11.690015,5.53460241 11.6771064,5.54662529 C11.6643028,5.55885909 11.6586357,5.57668247 11.6616791,5.59418945 C11.7013493,5.81534701 11.8188905,6.05981207 12.0014992,6.30121868 C12.0068515,6.30828475 12.013883,6.31387433 12.021964,6.3174601 C14.3532683,7.36429365 14.2265967,9.45890991 14.079985,11.8844715 C14.0611994,12.1945351 14.041889,12.5152504 14.0283508,12.8299544 C14.027931,12.8322746 13.9863718,13.0662987 13.8171964,13.2806011 C13.6804497,13.4538781 13.4594303,13.5385656 13.1548725,13.5291793 L3.75220387,13.5287574 C3.7149475,13.5287574 3.67842576,13.4919506 3.67842576,13.4545109 L3.62143925,7.92251347 C2.81565215,7.78013736 1.40463266,6.55633558 0.927856043,5.44411449 C0.5563418,5.97174981 0.529999971,6.40077649 0.529999971,7.09493914 L0.529999971,13.4545109 C0.529999971,15.2400128 1.97544225,16.692671 3.75220387,16.692671 L13.1340929,16.692671 C14.8257421,16.692671 16.7923538,15.2625821 16.7922488,13.4212898 L16.7994902,13.2665745 C16.9968965,9.03589466 17.1394153,5.97913227 13.1615892,4.53238005" id="Fill-4"></path>
            </g>
        </g>
    </g>
</svg>
