<!-- Generated by IcoMoon.io -->
<svg version="1.1" xmlns="http://www.w3.org/2000/svg" width="20" height="20" viewBox="0 0 20 20">
<title>image</title>
<path d="M10 0.645c-5.158 0-9.355 4.197-9.355 9.355s4.197 9.355 9.355 9.355 9.355-4.197 9.355-9.355-4.197-9.355-9.355-9.355zM18.037 13.362c-0.609 1.455-1.605 2.72-2.881 3.658-1.299 0.956-2.836 1.53-4.442 1.661-0.009 0-0.017 0.001-0.026 0.001-0.098 0-0.192-0.045-0.253-0.123-0.067-0.085-0.087-0.197-0.054-0.3l1.527-4.7h-0.678l-0.923 2.839c-0.043 0.133-0.167 0.223-0.307 0.223s-0.264-0.090-0.307-0.223l-2.151-6.621-0.549 0.399 2.626 8.082c0.033 0.102 0.013 0.215-0.054 0.3-0.061 0.078-0.155 0.122-0.253 0.122-0.009 0-0.017-0-0.026-0.001-1.607-0.13-3.143-0.705-4.442-1.661-1.275-0.938-2.271-2.203-2.881-3.658-0.042-0.1-0.031-0.214 0.029-0.303s0.161-0.144 0.269-0.144h4.097c0.178 0 0.323 0.144 0.323 0.323h0.629l-0.314-0.968h-2.986c-0.139 0-0.263-0.090-0.307-0.223s0.004-0.279 0.117-0.361l3.705-2.692c0.001-0 0.002-0.001 0.002-0.002l1.925-1.399-0.549-0.399-1.418 1.030c-0.003 0.002-0.006 0.004-0.009 0.006l-1.085 0.788c-0.004 0.003-0.008 0.006-0.012 0.009l-4.353 3.163c-0.056 0.041-0.122 0.062-0.19 0.062-0.038 0-0.076-0.007-0.112-0.020-0.101-0.038-0.177-0.123-0.202-0.229-0.154-0.654-0.232-1.328-0.232-2.004 0-2.538 1.104-4.945 3.030-6.602 0.082-0.070 0.193-0.095 0.298-0.066s0.187 0.109 0.22 0.211l1.527 4.7 0.549-0.399-0.923-2.839c-0.043-0.133 0.004-0.279 0.117-0.361s0.266-0.082 0.379 0l2.606 1.894c0.001 0.001 0.002 0.001 0.003 0.002l7.084 5.147c0.113 0.082 0.16 0.228 0.117 0.361s-0.167 0.223-0.307 0.223l-6.962-0 0.21 0.645h8.5c0.108 0 0.209 0.054 0.268 0.144s0.071 0.204 0.029 0.303zM18.276 12.232c-0.036 0.014-0.074 0.020-0.112 0.020-0.067 0-0.134-0.021-0.189-0.062l-4.352-3.162c-0.004-0.003-0.009-0.006-0.013-0.009l-8.156-5.926c-0.087-0.063-0.137-0.166-0.133-0.274s0.062-0.206 0.154-0.262c1.36-0.829 2.925-1.267 4.525-1.267s3.166 0.438 4.526 1.267c0.092 0.056 0.15 0.155 0.154 0.262s-0.045 0.211-0.133 0.274l-3.26 2.369c-0.144 0.105-0.346 0.073-0.451-0.071l-0.562 0.408 0.823 0.598 2.415-1.755c0.113-0.082 0.266-0.082 0.379 0s0.16 0.228 0.117 0.361l-0.923 2.84 0.549 0.399 1.527-4.7c0.033-0.103 0.116-0.182 0.22-0.211s0.216-0.004 0.297 0.066c1.926 1.658 3.030 4.064 3.030 6.603 0 0.676-0.078 1.35-0.232 2.004-0.025 0.105-0.1 0.191-0.202 0.229z"></path>
<path d="M12.537 11.624l0.47-1.447-0.549-0.399-0.6 1.846z"></path>
</svg>
